<svg width="300" height="300" viewBox="0 0 300 300" fill="none" xmlns="http://www.w3.org/2000/svg">
<path d="M180 60H160V70H180V60Z" fill="#636363"/>
<path d="M170 40H160V50H170V40Z" fill="#636363"/>
<path d="M180 40H170V50H180V40Z" fill="#636363"/>
<path d="M190 40H180V50H190V40Z" fill="#636363"/>
<path d="M180 20H170V30H180V20Z" fill="#515050"/>
<path d="M170 20H160V30H170V20Z" fill="#515050"/>
<path d="M210 40H200V50H210V40Z" fill="#636363"/>
<path d="M200 40H190V50H200V40Z" fill="#636363"/>
<path d="M230 80H210V110H230V80Z" fill="#636363"/>
<path d="M280 80H230V100H280V80Z" fill="#636363"/>
<path d="M290 80H280V100H290V80Z" fill="#515050"/>
<path d="M300 80H290V100H300V80Z" fill="#515050"/>
<path d="M300 260H100V270H300V260Z" fill="black" fill-opacity="0.05"/>
<path d="M210 90H140V120H210V90Z" fill="#515050"/>
<path d="M190 90H140V80H190V90Z" fill="#515050"/>
<path d="M160 120H140V160H160V120Z" fill="#515050"/>
<path d="M130 140H140V160H130V140Z" fill="#515050"/>
<path d="M190 90H170V160H190V90Z" fill="#515050"/>
<path d="M160 80H170V150H160V80Z" fill="#515050"/>
<path d="M160 160H150V150H160V160Z" fill="#515050"/>
<path d="M190 90H200V160H190V90Z" fill="#515050"/>
<path d="M200 190H170V200H200V190Z" fill="#515050"/>
<path d="M200 190H190V180H200V190Z" fill="#515050"/>
<path d="M200 160H140V190H200V160Z" fill="#515050"/>
<path d="M190 160H160V150H190V160Z" fill="#5A5A5A"/>
<path d="M160 180H130V190H160V180Z" fill="#515050"/>
<path d="M160 190H130V200H160V190Z" fill="#515050"/>
<path d="M150 200H120V210H150V200Z" fill="#515050"/>
<path d="M150 210H120V220H150V210Z" fill="#515050"/>
<path d="M140 220H110V230H140V220Z" fill="#515050"/>
<path d="M140 230H110V240H140V230Z" fill="#515050"/>
<path d="M200 200H170V210H200V200Z" fill="#515050"/>
<path d="M200 210H170V220H200V210Z" fill="#515050"/>
<path d="M200 220H170V230H200V220Z" fill="#515050"/>
<path d="M200 230H170V240H200V230Z" fill="#515050"/>
<path d="M200 240H180V250H200V240Z" fill="#515050"/>
<path d="M210 250H190V260H210V250Z" fill="#515050"/>
<path d="M130 240H110V250H130V240Z" fill="#515050"/>
<path d="M130 250H110V260H130V250Z" fill="#515050"/>
<path d="M180 90H140V110H180V90Z" fill="#636363"/>
<path d="M150 80H140V90H150V80Z" fill="#636363"/>
<path d="M190 90H180V110H190V90Z" fill="#636363"/>
<path d="M200 70H170V80H200V70Z" fill="#636363"/>
<path d="M190 80H170V90H190V80Z" fill="#636363"/>
<path d="M210 30H160V50H210V30Z" fill="#515050"/>
<path d="M170 50H160V80H170V50Z" fill="#636363"/>
<path d="M150 90H160V80H150V90Z" fill="#636363"/>
<path d="M210 50H200V90H210V50Z" fill="#636363"/>
<path d="M210 50H170V60H210V50Z" fill="#636363"/>
<path d="M210 60H180V70H210V60Z" fill="#636363"/>
<rect x="190" y="80" width="10" height="10" fill="#515050"/>
<path d="M180 50H160V60H180V50Z" fill="#636363"/>
<path d="M200 80H190V100H200V80Z" fill="#515050"/>
<path d="M210 80H200V100H210V80Z" fill="#515050"/>
</svg>
