<svg width="300" height="300" viewBox="0 0 300 300" fill="none" xmlns="http://www.w3.org/2000/svg">
<path d="M150 20H120V30H150V20Z" fill="#DFD09A"/>
<path d="M160 10H150V40H160V10Z" fill="#DFD09A"/>
<path d="M150 30H120V40H150V30Z" fill="#DFD09A"/>
<path d="M120 10H110V20H120V10Z" fill="#636363"/>
<path d="M120 20H110V30H120V20Z" fill="#636363"/>
<path d="M130 10H120V20H130V10Z" fill="#636363"/>
<path d="M140 10H130V20H140V10Z" fill="#636363"/>
<path d="M130 0H120V10H130V0Z" fill="#636363"/>
<path d="M140 0H130V10H140V0Z" fill="#636363"/>
<path d="M150 0H140V10H150V0Z" fill="#636363"/>
<path d="M160 0H150V10H160V0Z" fill="#636363"/>
<path d="M150 10H140V20H150V10Z" fill="#636363"/>
<path d="M120 30H110V40H120V30Z" fill="#DFD09A"/>
<path d="M170 40H90V90H170V40Z" fill="#EDEDED"/>
<path d="M160 40H130V50H160V40Z" fill="#DFD09A"/>
<path d="M180 40H170V80H180V40Z" fill="#DFD09A"/>
<path d="M170 50H160V70H170V50Z" fill="#DFD09A"/>
<path d="M190 50H180V90H190V50Z" fill="#DFD09A"/>
<path d="M190 60H180V90H190V60Z" fill="#DFD09A"/>
<path d="M300 260H90V270H300V260Z" fill="black" fill-opacity="0.05"/>
<path d="M180 100H120V140H180V100Z" fill="#EDEDED"/>
<path d="M110 100H180V80H110V100Z" fill="#EDEDED"/>
<path d="M160 130H120V140H160V130Z" fill="#EDEDED"/>
<path d="M130 110H120V130H130V110Z" fill="#EDEDED"/>
<path d="M160 140H130V150H160V140Z" fill="#EDEDED"/>
<path d="M160 150H130V160H160V150Z" fill="#EDEDED"/>
<path d="M160 160H130V170H160V160Z" fill="#EDEDED"/>
<path d="M160 170H130V180H160V170Z" fill="#EDEDED"/>
<path d="M160 180H130V190H160V180Z" fill="#EDEDED"/>
<path d="M160 190H130V200H160V190Z" fill="#EDEDED"/>
<path d="M180 100H270V130H180V100Z" fill="#EDEDED"/>
<path d="M290 100H270V120H290V100Z" fill="#DFD09A"/>
<path d="M300 100H290V120H300V100Z" fill="#DFD09A"/>
<path d="M150 200H130V210H150V200Z" fill="#DFD09A"/>
<path d="M150 210H130V220H150V210Z" fill="#DFD09A"/>
<path d="M120 50H90V90H120V50Z" fill="#DFD09A"/>
<path d="M130 70H120V90H130V70Z" fill="#DFD09A"/>
<path d="M140 60H130V80H140V60Z" fill="#DFD09A"/>
<path d="M150 60H140V80H150V60Z" fill="#DFD09A"/>
<path d="M170 100H140V110H170V100Z" fill="#5A5A5A"/>
<path d="M170 100H180V90H170V100Z" fill="#5A5A5A"/>
<path d="M150 120H140V130H150V120Z" fill="#5A5A5A"/>
<path d="M180 120H170V130H180V120Z" fill="#5A5A5A"/>
<path d="M190 130H180V140H190V130Z" fill="#5A5A5A"/>
<path d="M170 110H160V120H170V110Z" fill="#5A5A5A"/>
<path d="M160 130H150V140H160V130Z" fill="#5A5A5A"/>
<path d="M140 110H120V120H140V110Z" fill="#5A5A5A"/>
</svg>
