<svg width="300" height="300" viewBox="0 0 300 300" fill="none" xmlns="http://www.w3.org/2000/svg">
<path d="M180 50H140V60H180V50Z" fill="#D4A570"/>
<path d="M180 60H150V70H180V60Z" fill="#D4A570"/>
<path d="M150 60H130V70H150V60Z" fill="#D4A570"/>
<path d="M140 40H130V50H140V40Z" fill="#4E2700"/>
<path d="M140 50H130V60H140V50Z" fill="#4E2700"/>
<path d="M150 40H140V50H150V40Z" fill="#4E2700"/>
<path d="M160 40H150V50H160V40Z" fill="#4E2700"/>
<path d="M150 30H140V40H150V30Z" fill="#4E2700"/>
<path d="M160 30H150V40H160V30Z" fill="#4E2700"/>
<path d="M170 30H160V40H170V30Z" fill="#4E2700"/>
<path d="M180 40H170V50H180V40Z" fill="#4E2700"/>
<path d="M170 40H160V50H170V40Z" fill="#4E2700"/>
<path d="M130 60H120V70H130V60Z" fill="#D4A570"/>
<path d="M190 70H180V90H190V70Z" fill="#FF5825"/>
<path d="M200 80H190V120H200V80Z" fill="#D4A570"/>
<path d="M190 90H180V110H190V90Z" fill="#D4A570"/>
<path d="M210 90H200V130H210V90Z" fill="#D4A570"/>
<path d="M220 100H210V130H220V100Z" fill="#D4A570"/>
<path d="M230 100H220V120H230V100Z" fill="#D4A570"/>
<path d="M180 120H170V170H180V120Z" fill="#FF5825"/>
<path d="M200 260H70V270H200V260Z" fill="black" fill-opacity="0.05"/>
<path d="M180 70H100V120H180V70Z" fill="#FF5825"/>
<path d="M170 120H110V170H170V120Z" fill="#FF5825"/>
<path d="M180 130H110V140H180V130Z" fill="#B81600"/>
<path d="M150 140H140V160H150V140Z" fill="#B81600"/>
<path d="M170 140H160V160H170V140Z" fill="#B81600"/>
<path d="M150 160H140V170H150V160Z" fill="#B81600"/>
<path d="M180 170H140V190H180V170Z" fill="#FF5825"/>
<path d="M190 190H150V200H190V190Z" fill="#FF5825"/>
<path d="M140 170H100V180H140V170Z" fill="#FF5825"/>
<path d="M110 160H100V170H110V160Z" fill="#FF5825"/>
<path d="M130 180H100V190H130V180Z" fill="#FF5825"/>
<path d="M130 190H100V200H130V190Z" fill="#FF5825"/>
<path d="M120 200H90V210H120V200Z" fill="#FF5825"/>
<path d="M120 210H90V220H120V210Z" fill="#FF5825"/>
<path d="M120 220H90V230H120V220Z" fill="#FF5825"/>
<path d="M120 230H90V240H120V230Z" fill="#FF5825"/>
<path d="M190 200H160V210H190V200Z" fill="#FF5825"/>
<path d="M190 210H160V220H190V210Z" fill="#FF5825"/>
<path d="M190 220H160V230H190V220Z" fill="#FF5825"/>
<path d="M190 230H160V240H190V230Z" fill="#FF5825"/>
<path d="M180 240H160V250H180V240Z" fill="#D4A570"/>
<path d="M190 250H170V260H190V250Z" fill="#D4A570"/>
<path d="M110 240H90V250H110V240Z" fill="#D4A570"/>
<path d="M110 250H90V260H110V250Z" fill="#D4A570"/>
<path d="M130 80H100V120H130V80Z" fill="#D4A570"/>
<path d="M140 100H130V120H140V100Z" fill="#D4A570"/>
<path d="M150 100H140V120H150V100Z" fill="#D4A570"/>
<path d="M160 90H150V110H160V90Z" fill="#D4A570"/>
<path d="M170 90H160V110H170V90Z" fill="#D4A570"/>
<path d="M170 70H140V80H170V70Z" fill="#D4A570"/>
<path d="M180 160H170V170H180V160Z" fill="#B81600"/>
<path d="M180 170H170V180H180V170Z" fill="#B81600"/>
<path d="M180 20H160V30H180V20Z" fill="#89BE3E"/>
<path d="M180 30H170V40H180V30Z" fill="#89BE3E"/>
</svg>
