<svg width="300" height="300" viewBox="0 0 300 300" fill="none" xmlns="http://www.w3.org/2000/svg">
<path d="M180 50H150V60H180V50Z" fill="#D4A570"/>
<path d="M190 40H180V70H190V40Z" fill="#D4A570"/>
<path d="M180 60H150V70H180V60Z" fill="#D4A570"/>
<path d="M150 40H140V50H150V40Z" fill="#623100"/>
<path d="M150 50H140V60H150V50Z" fill="#623100"/>
<path d="M160 40H150V50H160V40Z" fill="#623100"/>
<path d="M170 40H160V50H170V40Z" fill="#623100"/>
<path d="M160 30H150V40H160V30Z" fill="#623100"/>
<path d="M170 30H160V40H170V30Z" fill="#623100"/>
<path d="M180 30H170V40H180V30Z" fill="#623100"/>
<path d="M190 30H180V40H190V30Z" fill="#623100"/>
<path d="M180 40H170V50H180V40Z" fill="#623100"/>
<path d="M150 60H140V70H150V60Z" fill="#D4A570"/>
<path d="M210 70H200V90H210V70Z" fill="#FF8B16"/>
<path d="M200 120H190V170H200V120Z" fill="#FF8B16"/>
<path d="M230 260H100V270H230V260Z" fill="black" fill-opacity="0.05"/>
<path d="M200 70H120V120H200V70Z" fill="#FF8B16"/>
<path d="M190 120H130V170H190V120Z" fill="#FF8B16"/>
<path d="M200 130H130V140H200V130Z" fill="#FF280B"/>
<path d="M170 140H160V160H170V140Z" fill="#FF280B"/>
<path d="M190 140H180V170H190V140Z" fill="#FF280B"/>
<path d="M170 160H160V170H170V160Z" fill="#FF280B"/>
<path d="M210 170H170V190H210V170Z" fill="#FF8B16"/>
<path d="M220 190H180V200H220V190Z" fill="#FF8B16"/>
<path d="M170 170H130V180H170V170Z" fill="#FF8B16"/>
<path d="M130 150H120V170H130V150Z" fill="#FF8B16"/>
<path d="M160 180H130V190H160V180Z" fill="#FF8B16"/>
<path d="M150 190H120V200H150V190Z" fill="#FF8B16"/>
<path d="M150 200H120V210H150V200Z" fill="#FF8B16"/>
<path d="M140 210H110V220H140V210Z" fill="#FF8B16"/>
<path d="M140 220H110V230H140V220Z" fill="#FF8B16"/>
<path d="M140 230H110V240H140V230Z" fill="#FF8B16"/>
<path d="M220 200H190V210H220V200Z" fill="#FF8B16"/>
<path d="M220 210H190V220H220V210Z" fill="#FF8B16"/>
<path d="M210 220H180V230H210V220Z" fill="#FF8B16"/>
<path d="M210 230H180V240H210V230Z" fill="#FF8B16"/>
<path d="M210 240H190V250H210V240Z" fill="#D4A570"/>
<path d="M220 250H200V260H220V250Z" fill="#D4A570"/>
<path d="M140 240H120V250H140V240Z" fill="#D4A570"/>
<path d="M130 250H110V260H130V250Z" fill="#D4A570"/>
<path d="M190 70H160V80H190V70Z" fill="#D4A570"/>
<path d="M190 170H180V180H190V170Z" fill="#FF280B"/>
<path d="M220 80H210V120H220V80Z" fill="#D4A570"/>
<path d="M210 90H200V110H210V90Z" fill="#D4A570"/>
<path d="M230 80H220V120H230V80Z" fill="#D4A570"/>
<path d="M240 90H230V120H240V90Z" fill="#D4A570"/>
<path d="M250 90H240V110H250V90Z" fill="#D4A570"/>
<path d="M150 80H120V110H150V80Z" fill="#D4A570"/>
<path d="M160 90H150V110H160V90Z" fill="#D4A570"/>
<path d="M170 90H160V110H170V90Z" fill="#D4A570"/>
<path d="M180 80H170V100H180V80Z" fill="#D4A570"/>
<path d="M190 80H180V100H190V80Z" fill="#D4A570"/>
</svg>
